<svg id="Capa_1" data-name="Capa 1" xmlns="http://www.w3.org/2000/svg" viewBox="0 0 272.5 67.05"><defs><style>.cls-1{fill:#fff;}.cls-2{fill:#ededed;}.cls-3{fill:#009cde;}.cls-4{fill:#4bb7e9;}.cls-5{fill:#cde6f9;}.cls-6{fill:#dceefb;}.cls-7{fill:#6bbfec;}.cls-8{fill:#ecf5fd;}.cls-9{fill:#7ec5ee;}.cls-10{fill:#93cdf1;}.cls-11{fill:#00a5e2;}.cls-12{fill:#a8d6f4;}.cls-13{fill:#13afe6;}.cls-14{fill:#bbdef7;}.cls-15{fill:#f9b000;}.cls-16{fill:#1d1d1b;}.cls-17{fill:none;stroke:#1d1d1b;stroke-miterlimit:10;stroke-width:0.47px;}</style></defs><title>logo</title><path class="cls-1" d="M47.16,74a29.61,29.61,0,0,1-.9-59.2h.94a29.6,29.6,0,0,1,.91,59.19Z" transform="translate(-13.75 -10.72)"/><path class="cls-2" d="M47.2,13.46V16h0a28.33,28.33,0,0,1,.87,56.65h-.91A28.33,28.33,0,0,1,46.3,16l.9,0V13.46m0,0-1,0a30.88,30.88,0,0,0,.94,61.74h1a30.88,30.88,0,0,0-.95-61.75Z" transform="translate(-13.75 -10.72)"/><path class="cls-3" d="M49.72,26.58a3.09,3.09,0,1,1-3.19-3A3.1,3.1,0,0,1,49.72,26.58Z" transform="translate(-13.75 -10.72)"/><path class="cls-4" d="M29.62,48a3.09,3.09,0,1,1,3-3.19A3.1,3.1,0,0,1,29.62,48Z" transform="translate(-13.75 -10.72)"/><path class="cls-5" d="M64.94,46.88a3.09,3.09,0,1,1,3-3.18A3.08,3.08,0,0,1,64.94,46.88Z" transform="translate(-13.75 -10.72)"/><path class="cls-6" d="M63.83,37.66a3.09,3.09,0,1,1,1-4.25A3.09,3.09,0,0,1,63.83,37.66Z" transform="translate(-13.75 -10.72)"/><path class="cls-7" d="M33.79,56.28a3.09,3.09,0,1,1,1-4.25A3.09,3.09,0,0,1,33.79,56.28Z" transform="translate(-13.75 -10.72)"/><path class="cls-8" d="M58.26,30.23A3.09,3.09,0,1,1,57,26.05,3.08,3.08,0,0,1,58.26,30.23Z" transform="translate(-13.75 -10.72)"/><path class="cls-9" d="M41.55,61.38a3.09,3.09,0,1,1-1.26-4.18A3.09,3.09,0,0,1,41.55,61.38Z" transform="translate(-13.75 -10.72)"/><path class="cls-10" d="M50.82,61.91a3.09,3.09,0,1,1-3.18-3A3.09,3.09,0,0,1,50.82,61.91Z" transform="translate(-13.75 -10.72)"/><path class="cls-11" d="M40.5,27.7a3.09,3.09,0,1,1-4.25-1A3.09,3.09,0,0,1,40.5,27.7Z" transform="translate(-13.75 -10.72)"/><path class="cls-12" d="M59.12,57.74a3.09,3.09,0,1,1-4.25-1A3.09,3.09,0,0,1,59.12,57.74Z" transform="translate(-13.75 -10.72)"/><path class="cls-13" d="M33.07,33.27a3.09,3.09,0,1,1-4.18,1.26A3.09,3.09,0,0,1,33.07,33.27Z" transform="translate(-13.75 -10.72)"/><path class="cls-14" d="M64.22,50A3.09,3.09,0,1,1,60,51.24,3.08,3.08,0,0,1,64.22,50Z" transform="translate(-13.75 -10.72)"/><path class="cls-15" d="M58,44A10.78,10.78,0,1,1,46.85,33.57,10.79,10.79,0,0,1,58,44Z" transform="translate(-13.75 -10.72)"/><path class="cls-1" d="M50.27,44.25a3.09,3.09,0,1,1-3.18-3A3.09,3.09,0,0,1,50.27,44.25Z" transform="translate(-13.75 -10.72)"/><path class="cls-3" d="M47.2,13.46a30.88,30.88,0,0,1,.95,61.75l-1,0a30.88,30.88,0,0,1-.94-61.75l1,0m0-2.55h0l-1.06,0A33.44,33.44,0,0,0,23.93,68.37a33.23,33.23,0,0,0,23.23,9.41l1.07,0a33.43,33.43,0,0,0-1-66.85Z" transform="translate(-13.75 -10.72)"/><path class="cls-3" d="M121.51,53.5l-.14.07a14.2,14.2,0,0,1-4.5.46,14,14,0,0,1-4.49-.46,2.78,2.78,0,0,1-1.49-2.29,46.56,46.56,0,0,1-.34-7,46.74,46.74,0,0,1,.34-6.95,2.76,2.76,0,0,1,1.49-2.28,14,14,0,0,1,4.49-.47,14.11,14.11,0,0,1,4.5.47l.14.06c.08-.51.16-1,.26-1.41A11.34,11.34,0,0,1,123.35,30a29.15,29.15,0,0,0-6.48-.58c-4,0-6.82.43-8.52,1.27a5.88,5.88,0,0,0-3.2,4.15,48.72,48.72,0,0,0-.65,9.49,48.58,48.58,0,0,0,.65,9.49,5.86,5.86,0,0,0,3.2,4.15c1.7.85,4.53,1.27,8.52,1.27a29.85,29.85,0,0,0,6.48-.57,11.12,11.12,0,0,1-1.57-3.75C121.68,54.49,121.59,54,121.51,53.5Z" transform="translate(-13.75 -10.72)"/><path class="cls-3" d="M141.8,53.82a22.65,22.65,0,0,1-3.52.21h0a22.07,22.07,0,0,1-3.44-.2l-.34-.06a5.3,5.3,0,0,1-.71-.2,2.79,2.79,0,0,1-1.48-2.29,2,2,0,0,1,0-.24,50.12,50.12,0,0,1-.3-6.71,49.94,49.94,0,0,1,.3-6.7,1.87,1.87,0,0,1,0-.25,2.77,2.77,0,0,1,1.48-2.28,4.07,4.07,0,0,1,.71-.21l.34-.06a23.39,23.39,0,0,1,3.44-.2h0a22.43,22.43,0,0,1,3.52.22c.1-.65.21-1.25.33-1.78a12.11,12.11,0,0,1,1.27-3.33,35.59,35.59,0,0,0-5.12-.32c-4,0-6.82.43-8.51,1.27-.21.11-.41.22-.61.35a5.69,5.69,0,0,0-1.57,1.48,6.36,6.36,0,0,0-1,2.32,44.4,44.4,0,0,0-.65,8.68v1.63a44.2,44.2,0,0,0,.65,8.67,6.36,6.36,0,0,0,1,2.32l.3.38a5.42,5.42,0,0,0,1.27,1.11c.2.12.4.24.61.34q2.53,1.28,8.51,1.27a38,38,0,0,0,4.57-.24l.55-.07a12.11,12.11,0,0,1-1.27-3.33C142,55.07,141.9,54.47,141.8,53.82Z" transform="translate(-13.75 -10.72)"/><polygon class="cls-3" points="79.69 19.04 79.62 19.04 75.18 19.04 75.18 24.13 79.62 24.13 79.62 48.18 85.63 48.18 85.63 19.04 79.69 19.04"/><path class="cls-16" d="M165.68,29.71h.58v11h-.58Z" transform="translate(-13.75 -10.72)"/><path class="cls-16" d="M174.17,35.7c0-2.38-.35-2.75-2.22-2.75-2.44,0-2.44,1.59-2.44,3.57v4.24h-.57V32.57h.45l.05,1.28h.07c.22-.72.75-1.41,2.57-1.41,2.3,0,2.65.87,2.65,3.18v5.14h-.56Z" transform="translate(-13.75 -10.72)"/><path class="cls-16" d="M176.88,40.72v-.53a17.92,17.92,0,0,0,2.64.19c1.65,0,1.89-.58,1.89-1.75,0-1.48-.25-1.55-1.09-1.64l-2.09-.23c-1.24-.14-1.57-.63-1.57-2,0-2.09,1-2.33,2.79-2.33a13,13,0,0,1,2.13.19v.53a11.93,11.93,0,0,0-2.37-.21c-1.17,0-2,.15-2,1.71,0,1.3.26,1.44,1.13,1.54l2,.22c1.28.15,1.62.45,1.62,2.21s-.76,2.26-2.65,2.26A19.91,19.91,0,0,1,176.88,40.72Z" transform="translate(-13.75 -10.72)"/><path class="cls-16" d="M184.4,33.08h-1.51v-.51h1.51V30.19H185v2.38h1.75v.51H185v7.68h-.57Z" transform="translate(-13.75 -10.72)"/><path class="cls-16" d="M188.18,28.82h.66v1h-.66Zm0,3.75h.56v8.19h-.56Z" transform="translate(-13.75 -10.72)"/><path class="cls-16" d="M191.81,33.08H190.3v-.51h1.51V30.19h.56v2.38h1.75v.51h-1.75v7.68h-.56Z" transform="translate(-13.75 -10.72)"/><path class="cls-16" d="M200.91,39.48h-.07c-.22.72-.77,1.41-2.57,1.41-2.3,0-2.65-.85-2.65-3.18V32.57h.56v5.06c0,2.38.34,2.75,2.22,2.75,2.44,0,2.44-1.59,2.44-3.57V32.57h.57v8.19H201Z" transform="translate(-13.75 -10.72)"/><path class="cls-16" d="M204.41,33.08H202.9v-.51h1.51V30.19H205v2.38h1.75v.51H205v7.68h-.56Z" transform="translate(-13.75 -10.72)"/><path class="cls-16" d="M207.8,36.68c0-3.49.19-4.24,3.08-4.24s3.07.75,3.07,4.24-.19,4.21-3.07,4.21S207.8,40.17,207.8,36.68Zm5.59,0c0-3.13,0-3.73-2.51-3.73s-2.52.6-2.52,3.73,0,3.7,2.52,3.7S213.39,39.82,213.39,36.68Z" transform="translate(-13.75 -10.72)"/><path class="cls-16" d="M218.71,36.67c0-3.44.45-4.23,2.88-4.23,1.38,0,2.18.34,2.52,1.27h.06V28.82h.57V40.76h-.44l-.06-1.28h-.07c-.38,1.24-1.46,1.41-2.58,1.41C219.18,40.89,218.71,40.11,218.71,36.67ZM224,39.16a9.74,9.74,0,0,0,.22-2.72,7.63,7.63,0,0,0-.19-2.11c-.29-1-1-1.38-2.33-1.38-2.06,0-2.38.47-2.38,3.72s.32,3.71,2.46,3.71C223,40.38,223.71,40,224,39.16Z" transform="translate(-13.75 -10.72)"/><path class="cls-16" d="M232.76,36.86h-5.34c0,2.84.26,3.52,2.62,3.52a14.34,14.34,0,0,0,2.44-.23v.53a13.07,13.07,0,0,1-2.51.21c-2.71,0-3.11-.83-3.11-4.21,0-3.2.09-4.24,3.13-4.24,2.61,0,2.77.93,2.77,4.21Zm-5.34-.52h4.77V36c0-2.75-.48-3.06-2.23-3.06C227.68,33,227.42,33.4,227.42,36.34Z" transform="translate(-13.75 -10.72)"/><path class="cls-16" d="M241.45,40.89c-3.18,0-3.73-.59-3.73-5.65s.55-5.66,3.73-5.66a11.21,11.21,0,0,1,2.06.19v.51a13,13,0,0,0-1.93-.16c-3,0-3.28.45-3.28,5.12s.3,5.11,3.28,5.11a14,14,0,0,0,2-.16v.54A14,14,0,0,1,241.45,40.89Z" transform="translate(-13.75 -10.72)"/><path class="cls-16" d="M245.43,28.82h.66v1h-.66Zm0,3.75H246v8.19h-.56Z" transform="translate(-13.75 -10.72)"/><path class="cls-16" d="M254.06,36.86h-5.33c0,2.84.25,3.52,2.62,3.52a14.34,14.34,0,0,0,2.44-.23v.53a13.07,13.07,0,0,1-2.51.21c-2.71,0-3.12-.83-3.12-4.21,0-3.2.1-4.24,3.14-4.24,2.6,0,2.76.93,2.76,4.21Zm-5.33-.52h4.77V36c0-2.75-.48-3.06-2.23-3.06C249,33,248.73,33.4,248.73,36.34Z" transform="translate(-13.75 -10.72)"/><path class="cls-16" d="M261.42,35.7c0-2.38-.35-2.75-2.22-2.75-2.44,0-2.44,1.59-2.44,3.57v4.24h-.56V32.57h.45l.05,1.28h.06c.23-.72.76-1.41,2.57-1.41,2.3,0,2.66.87,2.66,3.18v5.14h-.57Z" transform="translate(-13.75 -10.72)"/><path class="cls-16" d="M267,40.89c-2.67,0-2.91-1.14-2.91-4.21,0-3.41.55-4.24,2.83-4.24a10.16,10.16,0,0,1,1.88.18v.53A8.75,8.75,0,0,0,267,33c-2,0-2.36.69-2.36,3.7s.33,3.73,2.41,3.73a8.48,8.48,0,0,0,1.8-.21v.53A9.13,9.13,0,0,1,267,40.89Z" transform="translate(-13.75 -10.72)"/><path class="cls-16" d="M270.6,28.82h.66v1h-.66Zm0,3.75h.56v8.19h-.56Z" transform="translate(-13.75 -10.72)"/><path class="cls-16" d="M273.15,38.55c0-1.79.48-2.33,2.22-2.33.48,0,2,0,3.07.08v-.74c0-2.37-.37-2.61-2.48-2.61a14.78,14.78,0,0,0-2.31.21v-.53a14.3,14.3,0,0,1,2.51-.19c2.34,0,2.84.56,2.84,3v5.3h-.45l-.05-1.28h-.06c-.4,1.28-1.66,1.41-2.65,1.41C274,40.89,273.15,40.51,273.15,38.55Zm5,.86a5,5,0,0,0,.34-2v-.66H275.5c-1.43,0-1.79.24-1.79,1.82s.39,1.83,2.06,1.83C276.75,40.38,277.73,40.31,278.1,39.41Z" transform="translate(-13.75 -10.72)"/><path class="cls-16" d="M281.15,40.72v-.53a17.92,17.92,0,0,0,2.64.19c1.66,0,1.9-.58,1.9-1.75,0-1.48-.26-1.55-1.1-1.64l-2.08-.23c-1.24-.14-1.58-.63-1.58-2,0-2.09,1-2.33,2.8-2.33a12.75,12.75,0,0,1,2.12.19v.53a11.89,11.89,0,0,0-2.36-.21c-1.18,0-2,.15-2,1.71,0,1.3.26,1.44,1.13,1.54l2,.22c1.28.15,1.62.45,1.62,2.21s-.76,2.26-2.65,2.26A19.91,19.91,0,0,1,281.15,40.72Z" transform="translate(-13.75 -10.72)"/><path class="cls-16" d="M165.12,54.81c0-3.44.45-4.23,2.88-4.23,1.38,0,2.18.34,2.52,1.27h.06V47h.57V58.91h-.44l-.06-1.29h-.07C170.2,58.86,169.12,59,168,59,165.58,59,165.12,58.25,165.12,54.81Zm5.24,2.49a9.66,9.66,0,0,0,.22-2.71,7.63,7.63,0,0,0-.19-2.11c-.29-1-1-1.38-2.33-1.38-2.06,0-2.38.46-2.38,3.71s.32,3.72,2.46,3.72C169.38,58.53,170.12,58.16,170.36,57.3Z" transform="translate(-13.75 -10.72)"/><path class="cls-16" d="M179.16,55h-5.33c0,2.85.25,3.53,2.62,3.53a14.34,14.34,0,0,0,2.44-.23v.53a13,13,0,0,1-2.51.21c-2.71,0-3.12-.84-3.12-4.21,0-3.2.1-4.25,3.14-4.25,2.6,0,2.76.94,2.76,4.22Zm-5.33-.51h4.77v-.34c0-2.75-.48-3-2.23-3C174.08,51.1,173.83,51.55,173.83,54.49Z" transform="translate(-13.75 -10.72)"/><path class="cls-16" d="M184.29,47h.56V58.91h-.56Z" transform="translate(-13.75 -10.72)"/><path class="cls-16" d="M186.8,56.69c0-1.78.48-2.33,2.21-2.33.49,0,2.05,0,3.07.08V53.7c0-2.36-.37-2.6-2.47-2.6a14.92,14.92,0,0,0-2.32.21v-.53a14.23,14.23,0,0,1,2.51-.2c2.35,0,2.85.57,2.85,3v5.3h-.45l0-1.29h-.07c-.4,1.29-1.65,1.42-2.65,1.42C187.62,59,186.8,58.65,186.8,56.69Zm4.95.87a5.17,5.17,0,0,0,.33-2v-.66h-2.94c-1.43,0-1.78.24-1.78,1.81s.38,1.84,2.06,1.84C190.4,58.53,191.38,58.46,191.75,57.56Z" transform="translate(-13.75 -10.72)"/><path class="cls-16" d="M201.64,59c-3.18,0-3.73-.59-3.73-5.66s.55-5.66,3.73-5.66a10.27,10.27,0,0,1,2.06.2v.51a11.78,11.78,0,0,0-1.93-.16c-3,0-3.27.45-3.27,5.11s.3,5.11,3.27,5.11a12.66,12.66,0,0,0,2-.16v.55A14.09,14.09,0,0,1,201.64,59Z" transform="translate(-13.75 -10.72)"/><path class="cls-16" d="M205.32,54.83c0-3.49.2-4.25,3.09-4.25s3.07.76,3.07,4.25S211.29,59,208.41,59,205.32,58.32,205.32,54.83Zm5.6,0c0-3.14,0-3.73-2.51-3.73s-2.52.59-2.52,3.73,0,3.7,2.52,3.7S210.92,58,210.92,54.83Z" transform="translate(-13.75 -10.72)"/><path class="cls-16" d="M223.12,53.85c0-2.38-.29-2.75-2-2.75-2.22,0-2.22,1.41-2.22,3.57v4.24h-.56V53.85c0-2.38-.29-2.75-2-2.75-2.23,0-2.23,1.59-2.23,3.57v4.24h-.56v-8.2h.45l0,1.29h.06c.19-.72.69-1.42,2.33-1.42,1.47,0,2.06.41,2.28,1.42h.09c.2-.72.74-1.42,2.38-1.42,2.1,0,2.44.87,2.44,3.19v5.14h-.56Z" transform="translate(-13.75 -10.72)"/><path class="cls-16" d="M226.12,50.71h.45l.05,1.29h.06c.39-1.24,1.46-1.42,2.59-1.42,2.43,0,2.88.79,2.88,4.23S231.7,59,229.27,59c-1.39,0-2.19-.34-2.53-1.27h-.06v4.31h-.56Zm5.46,4.1c0-3.25-.32-3.71-2.46-3.71-1.24,0-2,.37-2.25,1.32a9,9,0,0,0-.19,2.39,9.46,9.46,0,0,0,.16,2.25c.32,1.08,1,1.47,2.28,1.47C231.26,58.53,231.58,58.06,231.58,54.81Z" transform="translate(-13.75 -10.72)"/><path class="cls-16" d="M239.54,57.62h-.07c-.22.73-.77,1.42-2.57,1.42-2.3,0-2.65-.85-2.65-3.18V50.71h.56v5.07c0,2.38.34,2.75,2.22,2.75,2.44,0,2.44-1.6,2.44-3.57V50.71H240v8.2h-.45Z" transform="translate(-13.75 -10.72)"/><path class="cls-16" d="M243,51.23h-1.51v-.52H243V48.33h.56v2.38h1.75v.52H243.6v7.68H243Z" transform="translate(-13.75 -10.72)"/><path class="cls-16" d="M246.17,56.69c0-1.78.48-2.33,2.22-2.33.48,0,2,0,3.07.08V53.7c0-2.36-.37-2.6-2.48-2.6a14.9,14.9,0,0,0-2.31.21v-.53a14.14,14.14,0,0,1,2.51-.2c2.34,0,2.84.57,2.84,3v5.3h-.45l0-1.29h-.06c-.4,1.29-1.66,1.42-2.65,1.42C247,59,246.17,58.65,246.17,56.69Zm5,.87a5,5,0,0,0,.34-2v-.66h-2.94c-1.43,0-1.79.24-1.79,1.81s.39,1.84,2.06,1.84C249.77,58.53,250.75,58.46,251.12,57.56Z" transform="translate(-13.75 -10.72)"/><path class="cls-16" d="M257,59c-2.67,0-2.91-1.14-2.91-4.21,0-3.41.54-4.25,2.83-4.25a11.21,11.21,0,0,1,1.88.18v.53A9.53,9.53,0,0,0,257,51.1c-2,0-2.36.69-2.36,3.7s.34,3.73,2.41,3.73a8.4,8.4,0,0,0,1.8-.21v.53A9,9,0,0,1,257,59Z" transform="translate(-13.75 -10.72)"/><path class="cls-16" d="M260.63,47h.66v1h-.66Zm.05,3.74h.56v8.2h-.56Z" transform="translate(-13.75 -10.72)"/><path class="cls-16" d="M263.36,54.83c0-3.49.2-4.25,3.09-4.25s3.07.76,3.07,4.25S269.33,59,266.45,59,263.36,58.32,263.36,54.83Zm5.6,0c0-3.14,0-3.73-2.51-3.73s-2.52.59-2.52,3.73,0,3.7,2.52,3.7S269,58,269,54.83ZM266,49.1,267.37,47h.7v.08l-1.62,2.14H266Z" transform="translate(-13.75 -10.72)"/><path class="cls-16" d="M276.87,53.85c0-2.38-.36-2.75-2.22-2.75-2.45,0-2.45,1.59-2.45,3.57v4.24h-.56v-8.2h.45l.05,1.29h.06c.23-.72.76-1.42,2.57-1.42,2.31,0,2.66.87,2.66,3.19v5.14h-.56Z" transform="translate(-13.75 -10.72)"/><line class="cls-17" x1="140.37" x2="140.37" y2="66.82"/></svg>